<svg xmlns="http://www.w3.org/2000/svg" xmlns:xlink="http://www.w3.org/1999/xlink" width="188" height="188" viewBox="0 0 188 188"><defs><style>.a{opacity:0.4;fill:url(#a);}.b,.c{stroke:none;}.c{fill:rgba(255,255,255,0.31);}</style><linearGradient id="a" x1="1.076" y1="0.621" x2="0" y2="0.54" gradientUnits="objectBoundingBox"><stop offset="0" stop-color="#ffb100"/><stop offset="0.315" stop-color="#5b0aa3"/><stop offset="1"/></linearGradient></defs><g class="a"><path class="b" d="M94,0A94,94,0,1,1,0,94,94,94,0,0,1,94,0Z"/><path class="c" d="M 94 1 C 87.68940734863281 1 81.38309478759766 1.635696411132812 75.25618743896484 2.889450073242188 C 69.2855224609375 4.111221313476562 63.41259765625 5.934280395507812 57.80050659179688 8.307998657226562 C 52.29010009765625 10.63868713378906 46.9752197265625 13.52352905273438 42.00352478027344 16.88235473632812 C 37.07878112792969 20.20942687988281 32.44776916503906 24.03038024902344 28.23907470703125 28.23907470703125 C 24.03038024902344 32.44776916503906 20.20942687988281 37.07878112792969 16.88235473632812 42.00352478027344 C 13.52352905273438 46.9752197265625 10.63868713378906 52.29010009765625 8.307998657226562 57.80050659179688 C 5.934280395507812 63.41259765625 4.111221313476562 69.2855224609375 2.889450073242188 75.25618743896484 C 1.635696411132812 81.38309478759766 1 87.68940734863281 1 94 C 1 100.3105926513672 1.635696411132812 106.6169052124023 2.889450073242188 112.7438125610352 C 4.111221313476562 118.7144775390625 5.934280395507812 124.58740234375 8.307998657226562 130.1994934082031 C 10.63868713378906 135.7098999023438 13.52352905273438 141.0247802734375 16.88235473632812 145.9964752197266 C 20.20942687988281 150.9212188720703 24.03038024902344 155.55224609375 28.23907470703125 159.7609252929688 C 32.44776916503906 163.9696197509766 37.07878112792969 167.7905731201172 42.00352478027344 171.1176452636719 C 46.9752197265625 174.4764709472656 52.29010009765625 177.3613128662109 57.80050659179688 179.6920013427734 C 63.41259765625 182.0657196044922 69.2855224609375 183.8887786865234 75.25618743896484 185.1105499267578 C 81.38309478759766 186.3643035888672 87.68940734863281 187 94 187 C 100.3105926513672 187 106.6169052124023 186.3643035888672 112.7438125610352 185.1105499267578 C 118.7144775390625 183.8887786865234 124.58740234375 182.0657196044922 130.1994934082031 179.6920013427734 C 135.7098999023438 177.3613128662109 141.0247802734375 174.4764709472656 145.9964752197266 171.1176452636719 C 150.9212188720703 167.7905731201172 155.55224609375 163.9696197509766 159.7609252929688 159.7609252929688 C 163.9696197509766 155.55224609375 167.7905731201172 150.9212188720703 171.1176452636719 145.9964752197266 C 174.4764709472656 141.0247802734375 177.3613128662109 135.7098999023438 179.6920013427734 130.1994934082031 C 182.0657196044922 124.58740234375 183.8887786865234 118.7144775390625 185.1105499267578 112.7438125610352 C 186.3643035888672 106.6169052124023 187 100.3105926513672 187 94 C 187 87.68940734863281 186.3643035888672 81.38309478759766 185.1105499267578 75.25618743896484 C 183.8887786865234 69.2855224609375 182.0657196044922 63.41259765625 179.6920013427734 57.80050659179688 C 177.3613128662109 52.29010009765625 174.4764709472656 46.9752197265625 171.1176452636719 42.00352478027344 C 167.7905731201172 37.07878112792969 163.9696197509766 32.44776916503906 159.7609252929688 28.23907470703125 C 155.55224609375 24.03038024902344 150.9212188720703 20.20942687988281 145.9964752197266 16.88235473632812 C 141.0247802734375 13.52352905273438 135.7098999023438 10.63868713378906 130.1994934082031 8.307998657226562 C 124.58740234375 5.934280395507812 118.7144775390625 4.111221313476562 112.7438125610352 2.889450073242188 C 106.6169052124023 1.635696411132812 100.3105926513672 1 94 1 M 94 0 C 145.9147644042969 0 188 42.08523559570312 188 94 C 188 145.9147644042969 145.9147644042969 188 94 188 C 42.08523559570312 188 0 145.9147644042969 0 94 C 0 42.08523559570312 42.08523559570312 0 94 0 Z"/></g></svg>