<svg xmlns="http://www.w3.org/2000/svg" width="1944" height="1944" viewBox="0 0 1944 1944">
  <defs>
    <style>.a{fill:#6e4a6c;}.b,.c,.e{fill:none;}.b,.c{stroke:#fff;opacity:0.2;}.c{stroke-dasharray:16 8;}.d{stroke:none;}</style>
    </defs>
      <g transform="translate(12 432)">
        <circle class="a" cx="7" cy="7" r="7" transform="translate(727 185)"/>
        <circle class="a" cx="7" cy="7" r="7" transform="translate(226 314)"/>
        <circle class="a" cx="7" cy="7" r="7" transform="translate(1537 825)"/>
        <circle class="a" cx="7" cy="7" r="7" transform="translate(1436 403)"/>
        <circle class="a" cx="3.5" cy="3.5" r="3.5" transform="translate(1735 417)"/>
        <circle class="a" cx="3.5" cy="3.5" r="3.5" transform="translate(364 590)"/>
        <circle class="a" cx="3.5" cy="3.5" r="3.5" transform="translate(1063 932)"/>
        <circle class="a" cx="3.5" cy="3.5" r="3.5" transform="translate(1318 134)"/>
        <circle class="a" cx="3.5" cy="3.5" r="3.5" transform="translate(260 785)"/>
        <circle class="a" cx="3.5" cy="3.5" r="3.5" transform="translate(1088 433)"/>
        <circle class="a" cx="3.5" cy="3.5" r="3.5" transform="translate(328 185)"/>
        <circle class="a" cx="3.5" cy="3.5" r="3.5" transform="translate(135 473)"/>
        <circle class="a" cx="3.5" cy="3.5" r="3.5" transform="translate(1135 801)"/>
        <circle class="a" cx="3.5" cy="3.5" r="3.5" transform="translate(562 374)"/>
        <circle class="a" cx="3.5" cy="3.5" r="3.5" transform="translate(1668 203)"/>
        <circle class="a" cx="7" cy="7" r="7" transform="translate(85 959)"/>
        <circle class="a" cx="7" cy="7" r="7" transform="translate(640 762)"/>
        <circle class="a" cx="7" cy="7" r="7" transform="translate(421 973)"/>
        <circle class="a" cx="7" cy="7" r="7" transform="translate(128 87)"/>
        <circle class="a" cx="7" cy="7" r="7" transform="translate(1760 134)"/><g class="b" transform="translate(781 361)">
        <circle class="d" cx="179" cy="179" r="179"/>
        <circle class="e" cx="179" cy="179" r="178.5"/></g><g class="c" transform="translate(727 307)">
        <circle class="d" cx="233" cy="233" r="233"/>
        <circle class="e" cx="233" cy="233" r="232.5"/></g><g class="b" transform="translate(673 253)">
        <circle class="d" cx="287" cy="287" r="287"/>
        <circle class="e" cx="287" cy="287" r="286.5"/></g><g class="c" transform="translate(620 200)">
        <circle class="d" cx="340" cy="340" r="340"/>
        <circle class="e" cx="340" cy="340" r="339.5"/></g><g class="b" transform="translate(565 145)">
        <circle class="d" cx="395" cy="395" r="395"/>
        <circle class="e" cx="395" cy="395" r="394.5"/></g><g class="c" transform="translate(510 90)">
        <circle class="d" cx="450" cy="450" r="450"/>
        <circle class="e" cx="450" cy="450" r="449.5"/></g><g class="c" transform="translate(289 -131)">
        <circle class="d" cx="671" cy="671" r="671"/>
        <circle class="e" cx="671" cy="671" r="670.5"/></g><g class="c" transform="translate(50 -370)">
        <circle class="d" cx="910" cy="910" r="910"/>
        <circle class="e" cx="910" cy="910" r="909.5"/></g><g class="c" transform="translate(402 -18)">
        <circle class="d" cx="558" cy="558" r="558"/>
        <circle class="e" cx="558" cy="558" r="557.5"/></g><g class="c" transform="translate(169 -251)">
        <circle class="d" cx="791" cy="791" r="791"/>
        <circle class="e" cx="791" cy="791" r="790.5"/></g><g class="b" transform="translate(-12 -432)">
        <circle class="d" cx="972" cy="972" r="972"/>
        <circle class="e" cx="972" cy="972" r="971.5"/></g><g class="b" transform="translate(455 35)">
        <circle class="d" cx="505" cy="505" r="505"/>
        <circle class="e" cx="505" cy="505" r="504.5"/></g><g class="b" transform="translate(229 -191)">
        <circle class="d" cx="731" cy="731" r="731"/>
        <circle class="e" cx="731" cy="731" r="730.5"/></g><g class="b" transform="translate(347 -73)">
        <circle class="d" cx="613" cy="613" r="613"/>
        <circle class="e" cx="613" cy="613" r="612.5"/></g><g class="b" transform="translate(110 -310)">
        <circle class="d" cx="850" cy="850" r="850"/>
        <circle class="e" cx="850" cy="850" r="849.5"/></g>
      </g>
</svg>